# xmcd CD database file
#
# Track frame offsets:
#	150
#	20200
#	38962
#	54477
#	69305
#	95720
#	187035
#	219767
#
# Disc length: 3291 seconds
#
# Revision: 1
# Processed by: cddbd v1.5.1PL0 Copyright (c) Steve Scherf et al.
# Submitted via: CDex 1.51
#
DISCID=700cd908
DTITLE=Randy Moore - Possessions
DYEAR=1900
DGENRE=Jazz
TTITLE0=November Eighty Eight
TTITLE1=March Eighty Seven
TTITLE2=June Eighty Seven
TTITLE3=May Eighty Seven
TTITLE4=October Eighty Six
TTITLE5=February Ninety Seven
TTITLE6=October Ninety
TTITLE7=May Eighty Eight
EXTD=
EXTT0=
EXTT1=
EXTT2=
EXTT3=
EXTT4=
EXTT5=
EXTT6=
EXTT7=
PLAYORDER=
